<mxfile host="app.diagrams.net" modified="2024-05-30T13:50:03.294Z" agent="Mozilla/5.0 (Windows NT 10.0; Win64; x64) AppleWebKit/537.36 (KHTML, like Gecko) Chrome/125.0.0.0 Safari/537.36" etag="g7vtumQztM6uguWab0O_" version="24.4.10" type="device">
  <diagram id="C5RBs43oDa-KdzZeNtuy" name="Page-1">
    <mxGraphModel dx="1914" dy="925" grid="1" gridSize="10" guides="1" tooltips="1" connect="1" arrows="1" fold="1" page="1" pageScale="1" pageWidth="827" pageHeight="1169" math="0" shadow="0">
      <root>
        <mxCell id="WIyWlLk6GJQsqaUBKTNV-0" />
        <mxCell id="WIyWlLk6GJQsqaUBKTNV-1" parent="WIyWlLk6GJQsqaUBKTNV-0" />
        <mxCell id="dEb25kDwK-8bPXaEIJRl-19" style="rounded=0;orthogonalLoop=1;jettySize=auto;html=1;entryX=1;entryY=0.5;entryDx=0;entryDy=0;strokeWidth=3;" parent="WIyWlLk6GJQsqaUBKTNV-1" source="dEb25kDwK-8bPXaEIJRl-12" target="qkU0JbKQ6EuipafsIjLe-22" edge="1">
          <mxGeometry relative="1" as="geometry">
            <mxPoint x="557.7199999999998" y="329.76" as="targetPoint" />
          </mxGeometry>
        </mxCell>
        <mxCell id="dEb25kDwK-8bPXaEIJRl-22" style="edgeStyle=none;rounded=0;orthogonalLoop=1;jettySize=auto;html=1;entryX=1;entryY=0.5;entryDx=0;entryDy=0;strokeWidth=3;" parent="WIyWlLk6GJQsqaUBKTNV-1" source="dEb25kDwK-8bPXaEIJRl-12" target="qkU0JbKQ6EuipafsIjLe-21" edge="1">
          <mxGeometry relative="1" as="geometry">
            <mxPoint x="560" y="460" as="targetPoint" />
          </mxGeometry>
        </mxCell>
        <mxCell id="dEb25kDwK-8bPXaEIJRl-26" style="rounded=0;orthogonalLoop=1;jettySize=auto;html=1;entryX=1;entryY=0.5;entryDx=0;entryDy=0;strokeWidth=3;" parent="WIyWlLk6GJQsqaUBKTNV-1" source="dEb25kDwK-8bPXaEIJRl-12" target="qkU0JbKQ6EuipafsIjLe-19" edge="1">
          <mxGeometry relative="1" as="geometry">
            <mxPoint x="552.8000000000002" y="673.52" as="targetPoint" />
          </mxGeometry>
        </mxCell>
        <mxCell id="dEb25kDwK-8bPXaEIJRl-28" style="rounded=0;orthogonalLoop=1;jettySize=auto;html=1;strokeWidth=3;entryX=1;entryY=0.5;entryDx=0;entryDy=0;" parent="WIyWlLk6GJQsqaUBKTNV-1" source="dEb25kDwK-8bPXaEIJRl-12" target="qkU0JbKQ6EuipafsIjLe-18" edge="1">
          <mxGeometry relative="1" as="geometry">
            <mxPoint x="560" y="820" as="targetPoint" />
          </mxGeometry>
        </mxCell>
        <mxCell id="dEb25kDwK-8bPXaEIJRl-12" value="&lt;font color=&quot;#000000&quot;&gt;&lt;b&gt;G107: PLINK&lt;/b&gt;&lt;/font&gt;" style="ellipse;whiteSpace=wrap;html=1;fillColor=#009900;strokeColor=#9673a6;" parent="WIyWlLk6GJQsqaUBKTNV-1" vertex="1">
          <mxGeometry x="625" y="545" width="120" height="80" as="geometry" />
        </mxCell>
        <mxCell id="dEb25kDwK-8bPXaEIJRl-21" style="edgeStyle=none;rounded=0;orthogonalLoop=1;jettySize=auto;html=1;strokeWidth=3;entryX=0.002;entryY=0.338;entryDx=0;entryDy=0;entryPerimeter=0;exitX=1;exitY=0.5;exitDx=0;exitDy=0;" parent="WIyWlLk6GJQsqaUBKTNV-1" source="qkU0JbKQ6EuipafsIjLe-35" target="qkU0JbKQ6EuipafsIjLe-21" edge="1">
          <mxGeometry relative="1" as="geometry">
            <mxPoint x="240" y="480" as="sourcePoint" />
            <mxPoint x="330" y="390" as="targetPoint" />
          </mxGeometry>
        </mxCell>
        <mxCell id="utWPcHmu2K7LS_2S_HRB-1" value="&lt;b style=&quot;font-size: 16px;&quot;&gt;&lt;u style=&quot;&quot;&gt;&lt;font style=&quot;font-size: 16px;&quot;&gt;Accessing data&lt;/font&gt;&lt;/u&gt;&lt;/b&gt;&lt;div style=&quot;font-size: 16px;&quot;&gt;&lt;b style=&quot;&quot;&gt;&lt;u style=&quot;&quot;&gt;&lt;font style=&quot;font-size: 16px;&quot;&gt;notebooks (A-series)&lt;/font&gt;&lt;/u&gt;&lt;/b&gt;&lt;/div&gt;" style="text;html=1;align=center;verticalAlign=middle;resizable=0;points=[];autosize=1;strokeColor=none;fillColor=none;fontSize=14;" parent="WIyWlLk6GJQsqaUBKTNV-1" vertex="1">
          <mxGeometry x="15" y="30" width="180" height="50" as="geometry" />
        </mxCell>
        <mxCell id="dNcQ-firc5VJONFwm-qN-0" value="&lt;p data-pm-slice=&quot;1 1 [&amp;quot;body&amp;quot;,null]&quot;&gt;&lt;b&gt;&lt;font color=&quot;#000000&quot;&gt;G&lt;/font&gt;&lt;/b&gt;&lt;b style=&quot;background-color: initial;&quot;&gt;&lt;font color=&quot;#000000&quot;&gt;106:&amp;nbsp;&lt;/font&gt;pVCF to PLINK&lt;/b&gt;&lt;/p&gt;" style="ellipse;whiteSpace=wrap;html=1;fillColor=#009900;strokeColor=#9673a6;" parent="WIyWlLk6GJQsqaUBKTNV-1" vertex="1">
          <mxGeometry x="625" y="270" width="120" height="80" as="geometry" />
        </mxCell>
        <mxCell id="qkU0JbKQ6EuipafsIjLe-16" value="&lt;p data-pm-slice=&quot;1 1 [&amp;quot;body&amp;quot;,null]&quot;&gt;&lt;b&gt;&lt;font color=&quot;#000000&quot;&gt;G208: Functional variant annotation&lt;/font&gt;&lt;/b&gt;&lt;/p&gt;" style="whiteSpace=wrap;html=1;rounded=1;glass=0;strokeWidth=1;shadow=0;fillColor=#00FF00;fontColor=#ffffff;strokeColor=#005700;" parent="WIyWlLk6GJQsqaUBKTNV-1" vertex="1">
          <mxGeometry x="330" y="810" width="120" height="80" as="geometry" />
        </mxCell>
        <mxCell id="qkU0JbKQ6EuipafsIjLe-17" value="&lt;p data-pm-slice=&quot;1 1 [&amp;quot;body&amp;quot;,null]&quot;&gt;&lt;b&gt;&lt;font color=&quot;#000000&quot;&gt;G207: SNP Annotatation&lt;/font&gt;&lt;/b&gt;&lt;/p&gt;" style="whiteSpace=wrap;html=1;rounded=1;glass=0;strokeWidth=1;shadow=0;fillColor=#00FF00;fontColor=#ffffff;strokeColor=#005700;" parent="WIyWlLk6GJQsqaUBKTNV-1" vertex="1">
          <mxGeometry x="330" y="710" width="120" height="80" as="geometry" />
        </mxCell>
        <mxCell id="qkU0JbKQ6EuipafsIjLe-18" value="&lt;p data-pm-slice=&quot;1 1 [&amp;quot;body&amp;quot;,null]&quot;&gt;&lt;b&gt;&lt;font color=&quot;#000000&quot;&gt;G206: Polygenic risk scores - hypertension&lt;/font&gt;&lt;/b&gt;&lt;/p&gt;" style="whiteSpace=wrap;html=1;rounded=1;glass=0;strokeWidth=1;shadow=0;fillColor=#00FF00;fontColor=#ffffff;strokeColor=#005700;" parent="WIyWlLk6GJQsqaUBKTNV-1" vertex="1">
          <mxGeometry x="330" y="610" width="120" height="80" as="geometry" />
        </mxCell>
        <mxCell id="qkU0JbKQ6EuipafsIjLe-19" value="&lt;p data-pm-slice=&quot;1 1 [&amp;quot;body&amp;quot;,null]&quot;&gt;&lt;b&gt;&lt;font color=&quot;#000000&quot;&gt;G205: Polygenic risk scores - height&lt;/font&gt;&lt;/b&gt;&lt;/p&gt;" style="whiteSpace=wrap;html=1;rounded=1;glass=0;strokeWidth=1;shadow=0;fillColor=#00FF00;fontColor=#ffffff;strokeColor=#005700;" parent="WIyWlLk6GJQsqaUBKTNV-1" vertex="1">
          <mxGeometry x="330" y="510" width="120" height="80" as="geometry" />
        </mxCell>
        <mxCell id="qkU0JbKQ6EuipafsIjLe-20" value="&lt;p data-pm-slice=&quot;1 1 [&amp;quot;body&amp;quot;,null]&quot;&gt;&lt;b&gt;&lt;font color=&quot;#000000&quot;&gt;G204: GWAS hypertension&lt;/font&gt;&lt;/b&gt;&lt;/p&gt;" style="rounded=1;whiteSpace=wrap;html=1;fontSize=12;glass=0;strokeWidth=1;shadow=0;fillColor=#00FF00;fontColor=#ffffff;strokeColor=#005700;" parent="WIyWlLk6GJQsqaUBKTNV-1" vertex="1">
          <mxGeometry x="330" y="410" width="120" height="80" as="geometry" />
        </mxCell>
        <mxCell id="qkU0JbKQ6EuipafsIjLe-21" value="&lt;p data-pm-slice=&quot;1 1 [&amp;quot;body&amp;quot;,null]&quot;&gt;&lt;b&gt;&lt;font color=&quot;#000000&quot;&gt;G203: GWAS participant height&lt;/font&gt;&lt;/b&gt;&lt;/p&gt;" style="rounded=1;whiteSpace=wrap;html=1;shadow=0;fontFamily=Helvetica;fontSize=12;align=center;strokeWidth=1;spacing=6;spacingTop=-4;fillColor=#00FF00;fontColor=#ffffff;strokeColor=#005700;" parent="WIyWlLk6GJQsqaUBKTNV-1" vertex="1">
          <mxGeometry x="330" y="310" width="120" height="80" as="geometry" />
        </mxCell>
        <mxCell id="qkU0JbKQ6EuipafsIjLe-22" value="&lt;p data-pm-slice=&quot;1 1 [&amp;quot;body&amp;quot;,null]&quot;&gt;&lt;font color=&quot;#000000&quot;&gt;&lt;b&gt;G202: Population structure (PCA)&lt;/b&gt;&lt;/font&gt;&lt;/p&gt;" style="rounded=1;whiteSpace=wrap;html=1;shadow=0;fontFamily=Helvetica;fontSize=12;align=center;strokeWidth=1;spacing=6;spacingTop=-4;fillColor=#00FF00;fontColor=#ffffff;strokeColor=#005700;" parent="WIyWlLk6GJQsqaUBKTNV-1" vertex="1">
          <mxGeometry x="330" y="210" width="120" height="80" as="geometry" />
        </mxCell>
        <mxCell id="qkU0JbKQ6EuipafsIjLe-23" value="&lt;b&gt;&lt;font color=&quot;#000000&quot;&gt;G201: Hypertension data manipulation&lt;/font&gt;&lt;/b&gt;" style="rounded=1;whiteSpace=wrap;html=1;shadow=0;fontFamily=Helvetica;fontSize=12;align=center;strokeWidth=1;spacing=6;spacingTop=-4;fillColor=#00FF00;fontColor=#ffffff;strokeColor=#005700;" parent="WIyWlLk6GJQsqaUBKTNV-1" vertex="1">
          <mxGeometry x="330" y="110" width="120" height="80" as="geometry" />
        </mxCell>
        <mxCell id="qkU0JbKQ6EuipafsIjLe-35" value="&lt;p data-pm-slice=&quot;1 1 [&amp;quot;body&amp;quot;,null]&quot;&gt;&lt;b&gt;&lt;font color=&quot;#000000&quot;&gt;A103: Export participant data&lt;/font&gt;&lt;/b&gt;&lt;/p&gt;" style="ellipse;whiteSpace=wrap;html=1;fillColor=#e1d5e7;strokeColor=#9673a6;" parent="WIyWlLk6GJQsqaUBKTNV-1" vertex="1">
          <mxGeometry x="30" y="400" width="120" height="80" as="geometry" />
        </mxCell>
        <mxCell id="jznnMHfIDR-uQTK8eCFl-0" value="&lt;p style=&quot;font-size: 16px;&quot;&gt;&lt;b style=&quot;font-size: 16px;&quot;&gt;&lt;u style=&quot;&quot;&gt;&lt;font style=&quot;font-size: 16px;&quot;&gt;Genomics preliminary&lt;br&gt;&lt;/font&gt;&lt;/u&gt;&lt;/b&gt;&lt;b style=&quot;background-color: initial;&quot;&gt;&lt;u style=&quot;&quot;&gt;&lt;font style=&quot;font-size: 16px;&quot;&gt;notebooks (G-series)&lt;/font&gt;&lt;/u&gt;&lt;/b&gt;&lt;/p&gt;" style="text;html=1;align=center;verticalAlign=middle;resizable=0;points=[];autosize=1;strokeColor=none;fillColor=none;fontSize=14;" parent="WIyWlLk6GJQsqaUBKTNV-1" vertex="1">
          <mxGeometry x="590" y="15" width="190" height="80" as="geometry" />
        </mxCell>
        <mxCell id="KVcAHST_LJNs0rAoIdOQ-1" value="" style="endArrow=classic;html=1;rounded=0;exitX=0;exitY=0.5;exitDx=0;exitDy=0;curved=1;entryX=0;entryY=0.5;entryDx=0;entryDy=0;strokeWidth=3;strokeColor=#CCCC00;" parent="WIyWlLk6GJQsqaUBKTNV-1" source="qkU0JbKQ6EuipafsIjLe-22" target="qkU0JbKQ6EuipafsIjLe-20" edge="1">
          <mxGeometry width="50" height="50" relative="1" as="geometry">
            <mxPoint x="390" y="500" as="sourcePoint" />
            <mxPoint x="230" y="330" as="targetPoint" />
            <Array as="points">
              <mxPoint x="250" y="380" />
            </Array>
          </mxGeometry>
        </mxCell>
        <mxCell id="KVcAHST_LJNs0rAoIdOQ-2" value="" style="endArrow=classic;html=1;rounded=0;exitX=0;exitY=0.5;exitDx=0;exitDy=0;curved=1;entryX=0;entryY=0.5;entryDx=0;entryDy=0;strokeWidth=3;strokeColor=#0000FF;" parent="WIyWlLk6GJQsqaUBKTNV-1" source="qkU0JbKQ6EuipafsIjLe-21" target="qkU0JbKQ6EuipafsIjLe-17" edge="1">
          <mxGeometry width="50" height="50" relative="1" as="geometry">
            <mxPoint x="390" y="620" as="sourcePoint" />
            <mxPoint x="440" y="570" as="targetPoint" />
            <Array as="points">
              <mxPoint x="210" y="620" />
            </Array>
          </mxGeometry>
        </mxCell>
        <mxCell id="KVcAHST_LJNs0rAoIdOQ-3" value="" style="endArrow=classic;html=1;rounded=0;exitX=0;exitY=0.5;exitDx=0;exitDy=0;entryX=0;entryY=0.5;entryDx=0;entryDy=0;curved=1;strokeWidth=3;strokeColor=#0000FF;" parent="WIyWlLk6GJQsqaUBKTNV-1" source="qkU0JbKQ6EuipafsIjLe-21" target="qkU0JbKQ6EuipafsIjLe-16" edge="1">
          <mxGeometry width="50" height="50" relative="1" as="geometry">
            <mxPoint x="390" y="620" as="sourcePoint" />
            <mxPoint x="440" y="570" as="targetPoint" />
            <Array as="points">
              <mxPoint x="140" y="680" />
            </Array>
          </mxGeometry>
        </mxCell>
        <mxCell id="KVcAHST_LJNs0rAoIdOQ-4" value="" style="endArrow=classic;html=1;rounded=0;exitX=1;exitY=0.5;exitDx=0;exitDy=0;entryX=1;entryY=0.5;entryDx=0;entryDy=0;curved=1;strokeWidth=3;strokeColor=#CC0000;" parent="WIyWlLk6GJQsqaUBKTNV-1" source="qkU0JbKQ6EuipafsIjLe-23" target="qkU0JbKQ6EuipafsIjLe-20" edge="1">
          <mxGeometry width="50" height="50" relative="1" as="geometry">
            <mxPoint x="390" y="500" as="sourcePoint" />
            <mxPoint x="440" y="450" as="targetPoint" />
            <Array as="points">
              <mxPoint x="550" y="330" />
            </Array>
          </mxGeometry>
        </mxCell>
        <mxCell id="KVcAHST_LJNs0rAoIdOQ-5" value="" style="endArrow=classic;html=1;rounded=0;entryX=1;entryY=0.5;entryDx=0;entryDy=0;strokeWidth=3;strokeColor=#CC0000;curved=1;exitX=1;exitY=0.5;exitDx=0;exitDy=0;" parent="WIyWlLk6GJQsqaUBKTNV-1" source="qkU0JbKQ6EuipafsIjLe-23" target="qkU0JbKQ6EuipafsIjLe-18" edge="1">
          <mxGeometry width="50" height="50" relative="1" as="geometry">
            <mxPoint x="450" y="160" as="sourcePoint" />
            <mxPoint x="460" y="750" as="targetPoint" />
            <Array as="points">
              <mxPoint x="610" y="450" />
            </Array>
          </mxGeometry>
        </mxCell>
        <mxCell id="KVcAHST_LJNs0rAoIdOQ-8" value="&lt;p style=&quot;font-size: 16px;&quot;&gt;&lt;b style=&quot;font-size: 16px;&quot;&gt;&lt;u style=&quot;&quot;&gt;&lt;font style=&quot;font-size: 16px;&quot;&gt;Genomics analytical&lt;br&gt;&lt;/font&gt;&lt;/u&gt;&lt;/b&gt;&lt;b style=&quot;background-color: initial;&quot;&gt;&lt;u style=&quot;&quot;&gt;&lt;font style=&quot;font-size: 16px;&quot;&gt;workflows (G-series)&lt;/font&gt;&lt;/u&gt;&lt;/b&gt;&lt;/p&gt;" style="text;html=1;align=center;verticalAlign=middle;resizable=0;points=[];autosize=1;strokeColor=none;fillColor=none;fontSize=14;" parent="WIyWlLk6GJQsqaUBKTNV-1" vertex="1">
          <mxGeometry x="315" y="15" width="180" height="80" as="geometry" />
        </mxCell>
        <mxCell id="uP7fvewfAweEeH9jOX1d-0" value="&lt;p data-pm-slice=&quot;1 1 [&amp;quot;body&amp;quot;,null]&quot;&gt;&lt;b&gt;&lt;font color=&quot;#000000&quot;&gt;A106: OMOP format data&lt;/font&gt;&lt;/b&gt;&lt;/p&gt;" style="ellipse;whiteSpace=wrap;html=1;fillColor=#e1d5e7;strokeColor=#9673a6;" vertex="1" parent="WIyWlLk6GJQsqaUBKTNV-1">
          <mxGeometry x="30" y="150" width="120" height="80" as="geometry" />
        </mxCell>
        <mxCell id="uP7fvewfAweEeH9jOX1d-1" style="edgeStyle=none;rounded=0;orthogonalLoop=1;jettySize=auto;html=1;strokeWidth=3;entryX=0.002;entryY=0.338;entryDx=0;entryDy=0;entryPerimeter=0;exitX=1;exitY=0.5;exitDx=0;exitDy=0;" edge="1" parent="WIyWlLk6GJQsqaUBKTNV-1" source="uP7fvewfAweEeH9jOX1d-0">
          <mxGeometry relative="1" as="geometry">
            <mxPoint x="141" y="231" as="sourcePoint" />
            <mxPoint x="330" y="150" as="targetPoint" />
          </mxGeometry>
        </mxCell>
      </root>
    </mxGraphModel>
  </diagram>
</mxfile>
